<svg width="48" height="48" viewBox="0 0 48 48" fill="none" xmlns="http://www.w3.org/2000/svg">
<rect opacity="0.1" width="48" height="48" rx="16" fill="#FCFCFD"/>
<path d="M32 33.1463H30.9867C29.92 33.1463 28.9067 33.5596 28.16 34.3063L25.88 36.5597C24.84 37.5864 23.1467 37.5864 22.1067 36.5597L19.8267 34.3063C19.08 33.5596 18.0533 33.1463 17 33.1463H16C13.7867 33.1463 12 31.373 12 29.1864V14.6396C12 12.453 13.7867 10.6797 16 10.6797H32C34.2133 10.6797 36 12.453 36 14.6396V29.1864C36 31.3597 34.2133 33.1463 32 33.1463Z" stroke="#FCFCFD" stroke-width="1.5" stroke-miterlimit="10" stroke-linecap="round" stroke-linejoin="round"/>
<path d="M17.3333 20.2131C17.3333 18.9731 18.3466 17.9597 19.5866 17.9597C20.8266 17.9597 21.8399 18.9731 21.8399 20.2131C21.8399 22.7197 18.2799 22.9864 17.4932 25.3731C17.3332 25.8664 17.7466 26.3597 18.2666 26.3597H21.8399" stroke="#FCFCFD" stroke-width="1.5" stroke-linecap="round" stroke-linejoin="round"/>
<path d="M29.3866 26.3467V18.7334C29.3866 18.3867 29.1599 18.08 28.8266 17.9866C28.4933 17.8933 28.1333 18.0266 27.9466 18.32C26.9866 19.8666 25.9466 21.6267 25.0399 23.1733C24.8933 23.4267 24.8933 23.76 25.0399 24.0133C25.1866 24.2667 25.4666 24.4266 25.7733 24.4266H30.6666" stroke="#FCFCFD" stroke-width="1.5" stroke-linecap="round" stroke-linejoin="round"/>
</svg>
