<svg width="60" height="60" viewBox="0 0 60 60" fill="none" xmlns="http://www.w3.org/2000/svg">
<g filter="url(#filter0_b_270_619)">
<circle cx="30" cy="30" r="30" fill="#1C1F1E"/>
<circle cx="30" cy="30" r="29.5" stroke="url(#paint0_linear_270_619)" stroke-opacity="0.6"/>
<circle cx="30" cy="30" r="29.5" stroke="url(#paint1_linear_270_619)"/>
</g>
<g clip-path="url(#clip0_270_619)">
<path d="M45.9735 30.8C46.0001 30.8933 45.9868 30.9733 45.9735 31.08L45.9468 31.44V31.56C45.9068 31.8267 45.8668 32.1067 45.8135 32.3733C45.8135 32.44 45.8001 32.5067 45.7868 32.5733C45.7735 32.72 45.7468 32.8533 45.7201 32.9867C45.6668 33.1867 45.6268 33.4133 45.5735 33.6133C45.5335 33.8133 45.4801 34 45.4268 34.1867C45.3335 34.5733 45.2135 34.9467 45.0935 35.3067C44.6135 36.6933 43.9468 37.9867 43.1201 39.1467C42.6668 39.8133 42.1468 40.4533 41.5868 41.04C41.1335 41.5067 40.6535 41.9467 40.1468 42.36C40.0668 42.4267 39.9868 42.4933 39.9068 42.5467C39.5201 42.8667 39.1068 43.16 38.6801 43.4267C38.1601 43.76 37.6135 44.08 37.0535 44.36C36.4135 44.68 35.7335 44.96 35.0401 45.2H35.0268C33.8801 45.5733 32.6668 45.84 31.4268 45.9467C30.5201 46.04 29.6268 46.0267 28.6801 45.96L28.4401 45.9333C28.3201 45.92 28.1868 45.9067 28.0668 45.8933C27.8935 45.8667 27.7335 45.8533 27.5735 45.8267C27.1868 45.7733 26.8001 45.6933 26.4268 45.6133C25.8935 45.4933 25.3868 45.3467 24.8935 45.1733C24.5201 45.0533 24.1601 44.92 23.8001 44.7733H23.7735C23.5201 44.6533 23.2801 44.5467 23.0401 44.4267C22.4535 44.1467 21.8935 43.8267 21.3601 43.48C20.9335 43.2133 20.5335 42.92 20.1468 42.6133C19.2135 41.88 18.3735 41.0533 17.6401 40.16C16.8801 39.24 16.2135 38.2267 15.6801 37.16C15.3735 36.56 15.1201 35.9467 14.8935 35.3333C14.8401 35.1867 14.8001 35.0533 14.7468 34.92C14.6801 34.7067 14.6135 34.48 14.5601 34.2533C14.4001 33.7067 14.2801 33.1467 14.2001 32.5733C14.1868 32.4933 14.1735 32.4133 14.1735 32.3333C14.1201 32.0133 14.0801 31.6933 14.0535 31.36C13.9868 30.6667 13.9868 29.96 14.0268 29.2267C14.0001 29.1733 14.0135 29.0933 14.0135 29.0533C14.0135 28.84 14.0268 28.64 14.0535 28.44C14.0935 28.04 14.1601 27.6533 14.2135 27.28C14.2668 26.9867 14.3201 26.68 14.4135 26.3867C14.8268 24.48 15.6135 22.72 16.6268 21.1867C17.0801 20.48 17.6001 19.84 18.1735 19.24C18.6668 18.6533 19.2268 18.12 19.8401 17.64C21.7601 16.0533 24.0535 14.9067 26.5468 14.3733C26.7735 14.32 27.0001 14.28 27.2401 14.24C27.3868 14.2 27.5335 14.1867 27.6801 14.16C27.8668 14.1333 28.0401 14.1067 28.2268 14.0933C28.9068 14 29.6001 13.9733 30.3068 13.9867C30.7068 14 31.1201 14.0133 31.5468 14.0533C31.5868 14.0667 31.6135 14.0667 31.6401 14.0667C31.9868 14.1067 32.3335 14.16 32.6535 14.2133C32.8801 14.2533 33.1068 14.2933 33.3201 14.3333C34.0668 14.48 34.7868 14.6933 35.4668 14.96C39.2001 16.32 42.2535 19.0133 44.0668 22.4133C44.4535 23.1067 44.8001 23.8533 45.0535 24.6267C45.7601 26.56 46.0935 28.64 45.9735 30.8Z" fill="#6297B9"/>
<path d="M45.947 31.44V31.56C45.907 31.8267 45.867 32.1067 45.8137 32.3734C45.8137 32.44 45.8004 32.5067 45.787 32.5734C45.7737 32.72 45.747 32.8534 45.7204 32.9867C45.667 33.1867 45.627 33.4134 45.5737 33.6134C45.5337 33.8134 45.4804 34 45.427 34.1867C45.3337 34.5734 45.2137 34.9467 45.0937 35.3067C44.6137 36.6934 43.947 37.9867 43.1204 39.1467C42.667 39.8134 42.147 40.4534 41.587 41.04C41.1337 41.5067 40.6537 41.9467 40.147 42.36C40.067 42.4267 39.987 42.4934 39.907 42.5467C39.5204 42.8667 39.107 43.16 38.6804 43.4267C38.1604 43.76 37.6137 44.08 37.0537 44.36C36.4137 44.68 35.7337 44.96 35.0404 45.2H35.027C33.8804 45.5734 32.667 45.84 31.427 45.9467C30.5204 46.04 29.627 46.0267 28.6804 45.96L28.4404 45.9334C28.3204 45.92 28.187 45.9067 28.067 45.8934C27.8937 45.8667 27.7337 45.8534 27.5737 45.8267C27.187 45.7734 26.8004 45.6934 26.427 45.6134C25.8937 45.4934 25.387 45.3467 24.8937 45.1734C24.5204 45.0534 24.1604 44.92 23.8004 44.7734H23.7737C23.5204 44.6534 23.2804 44.5467 23.0404 44.4267C22.4537 44.1467 21.8937 43.8267 21.3604 43.48C20.9337 43.2134 20.5337 42.92 20.147 42.6134C19.2137 41.88 18.3737 41.0534 17.6404 40.16C16.8804 39.24 16.2137 38.2267 15.6804 37.16C15.3737 36.56 15.1204 35.9467 14.8937 35.3334C14.8404 35.1867 14.8004 35.0534 14.747 34.92C14.6804 34.7067 14.6137 34.48 14.5604 34.2534C14.4004 33.7067 14.2804 33.1467 14.2004 32.5734C14.187 32.4934 14.1737 32.4134 14.1737 32.3334C14.1204 32.0134 14.0804 31.6934 14.0537 31.36C14.4937 29.8667 15.1737 28.4134 16.0804 27.04C16.5204 26.3734 17.0537 25.7067 17.6937 25C18.1604 24.44 18.7604 23.8667 19.4404 23.3467C21.8004 21.3867 24.627 20.1467 27.6004 19.7334C28.387 19.6 29.267 19.5467 30.3204 19.5467C30.8137 19.5734 31.2137 19.5867 31.627 19.6267C32.0004 19.6667 32.4004 19.72 32.7604 19.7867C33.8004 19.9467 34.787 20.2 35.7204 20.56C39.547 21.96 42.7337 24.72 44.6537 28.32C45.067 29.0667 45.4004 29.8534 45.6804 30.6267C45.7737 30.8934 45.867 31.16 45.947 31.44Z" fill="#E5E3D7"/>
<path d="M45.4267 34.1867C45.3334 34.5733 45.2134 34.9467 45.0934 35.3067C44.6134 36.6933 43.9467 37.9867 43.1201 39.1467C42.6667 39.8133 42.1467 40.4533 41.5867 41.04C41.1334 41.5067 40.6534 41.9467 40.1467 42.36C40.0667 42.4267 39.9867 42.4933 39.9067 42.5467C39.5201 42.8667 39.1067 43.16 38.6801 43.4267C38.1601 43.76 37.6134 44.08 37.0534 44.36C36.4134 44.68 35.7334 44.96 35.0401 45.2H35.0267C33.8801 45.5733 32.6667 45.84 31.4267 45.9467C30.5201 46.04 29.6267 46.0267 28.6801 45.96L28.4401 45.9333C28.3201 45.92 28.1867 45.9067 28.0667 45.8933C27.8934 45.8667 27.7334 45.8533 27.5734 45.8267C27.1867 45.7733 26.8001 45.6933 26.4267 45.6133C25.8934 45.4933 25.3867 45.3467 24.8934 45.1733C24.5201 45.0533 24.1601 44.92 23.8001 44.7733H23.7734C23.5201 44.6533 23.2801 44.5467 23.0401 44.4267C22.4534 44.1467 21.8934 43.8267 21.3601 43.48C20.9334 43.2133 20.5334 42.92 20.1467 42.6133C19.2134 41.88 18.3734 41.0533 17.6401 40.16C16.8801 39.24 16.2134 38.2267 15.6801 37.16C15.3734 36.56 15.1201 35.9467 14.8934 35.3333C14.8401 35.1867 14.8001 35.0533 14.7467 34.92C14.6801 34.7067 14.6134 34.48 14.5601 34.2533C14.5734 34.1067 14.6001 33.96 14.6267 33.8133C14.6801 33.5333 14.7334 33.2267 14.8134 32.9467C15.2134 31.0933 15.9734 29.3733 16.9734 27.88C17.4134 27.2 17.9201 26.5733 18.4801 25.9867C18.9601 25.4 19.5067 24.88 20.0934 24.4267C22.2667 22.64 24.8934 21.4267 27.7467 21.04C28.5867 20.8933 29.4267 20.8533 30.3067 20.8667C30.6934 20.88 31.0934 20.8933 31.5201 20.9333C31.8801 20.9733 32.2534 21.0267 32.6001 21.0933C33.5601 21.2267 34.4801 21.4667 35.3467 21.8C38.9734 23.1333 41.9467 25.76 43.7201 29.0667C44.0934 29.76 44.4267 30.48 44.6801 31.2267C45.0267 32.1867 45.2801 33.1733 45.4267 34.1867Z" fill="#E2B468"/>
<g style="mix-blend-mode:multiply" opacity="0.23">
<path d="M41.5999 37.04C41.6132 37.12 41.6132 37.1733 41.5999 37.2533L41.5732 37.6C41.5332 37.9466 41.4799 38.32 41.4132 38.64C41.3732 38.7866 41.3466 38.9466 41.3066 39.0933C41.0399 40.3333 40.5466 41.5066 39.9066 42.5466C39.5199 42.8666 39.1066 43.16 38.6799 43.4266C38.1599 43.76 37.6132 44.08 37.0532 44.36C36.4132 44.68 35.7332 44.96 35.0399 45.2H35.0266C33.8799 45.5733 32.6666 45.84 31.4266 45.9466C30.5199 46.04 29.6266 46.0266 28.6799 45.96L28.4399 45.9333C28.3199 45.92 28.1866 45.9066 28.0666 45.8933C27.8932 45.8666 27.7332 45.8533 27.5732 45.8266C27.1866 45.7733 26.7999 45.6933 26.4266 45.6133C25.8932 45.4933 25.3866 45.3466 24.8932 45.1733C24.5199 45.0533 24.1599 44.92 23.7999 44.7733H23.7732C23.5199 44.6533 23.2799 44.5466 23.0399 44.4266C22.4532 44.1466 21.8932 43.8266 21.3599 43.48C20.9332 43.2133 20.5332 42.92 20.1466 42.6133C19.9466 42.3066 19.7732 41.9866 19.6132 41.6666C19.3466 41.1333 19.1199 40.6 18.9332 40.04C18.5199 38.7333 18.3199 37.3466 18.4132 35.9066C18.3999 35.8666 18.3999 35.8133 18.3999 35.7733C18.3999 35.6266 18.4132 35.48 18.4266 35.3333C18.4532 35.04 18.5066 34.7733 18.5466 34.4933C18.5866 34.28 18.6266 34.0533 18.6799 33.84C18.9866 32.4666 19.5599 31.1866 20.2932 30.0666C20.6266 29.56 20.9999 29.0933 21.4132 28.6533C21.7732 28.2266 22.1866 27.84 22.6266 27.4933C24.2399 26.1733 26.1999 25.2666 28.3199 24.9733C28.9466 24.8666 29.5732 24.84 30.2266 24.84C30.5199 24.8533 30.8132 24.8666 31.1332 24.8933C31.3999 24.92 31.6799 24.9733 31.9332 25.0133C32.6399 25.12 33.3332 25.2933 33.9732 25.5466C36.6799 26.5333 38.8932 28.4933 40.2132 30.96C40.4932 31.4666 40.7466 32.0133 40.9332 32.5733C41.4399 33.9733 41.6799 35.48 41.5999 37.04Z" fill="#DE7C61"/>
</g>
<path d="M40.5734 37C40.5734 37 40.5867 37.1066 40.5734 37.1866L40.5467 37.4933C40.5067 37.8133 40.4667 38.1466 40.4001 38.4533C40.3734 38.5866 40.3334 38.7333 40.3067 38.8666C40.0134 40.2 39.4534 41.4533 38.6801 42.52C38.3867 42.9733 38.0401 43.3866 37.6667 43.7733C37.4667 43.9733 37.2667 44.1733 37.0534 44.36C36.4134 44.68 35.7334 44.96 35.0401 45.2H35.0267C33.8801 45.5733 32.6667 45.84 31.4267 45.9466C30.5201 46.04 29.6267 46.0266 28.6801 45.96L28.4401 45.9333C28.3201 45.92 28.1867 45.9066 28.0667 45.8933C27.8934 45.8666 27.7334 45.8533 27.5734 45.8266C27.1867 45.7733 26.8001 45.6933 26.4267 45.6133C25.8934 45.4933 25.3867 45.3466 24.8934 45.1733C24.5201 45.0533 24.1601 44.92 23.8001 44.7733H23.7734C23.5201 44.6533 23.2801 44.5466 23.0401 44.4266C22.7067 44.1466 22.3734 43.8266 22.0801 43.4933C21.9867 43.3866 21.9067 43.2933 21.8267 43.1866C21.6534 42.9866 21.4934 42.7866 21.3467 42.5733C21.2001 42.3466 21.0401 42.1333 20.9067 41.9066C20.7734 41.68 20.6401 41.44 20.5201 41.2C20.4001 40.96 20.2934 40.72 20.1867 40.4666C20.0801 40.2266 20.0001 39.9733 19.9067 39.72C19.6267 38.8 19.4401 37.8266 19.4267 36.8266C19.4134 36.5333 19.4134 36.2533 19.4401 35.96C19.4267 35.92 19.4267 35.88 19.4267 35.84C19.4267 35.7066 19.4401 35.5733 19.4534 35.44C19.4801 35.1733 19.5201 34.92 19.5601 34.6666C19.6001 34.4666 19.6401 34.2666 19.6801 34.08C19.9601 32.8133 20.4801 31.6533 21.1601 30.64C21.4534 30.1733 21.8001 29.7466 22.1734 29.3466C22.5067 28.96 22.8801 28.6 23.2801 28.2933C24.7467 27.08 26.5334 26.2533 28.4667 25.9866C29.0401 25.8933 29.6134 25.8666 30.2001 25.8666C30.4801 25.88 30.7467 25.8933 31.0267 25.92C31.2801 25.9466 31.5334 25.9866 31.7601 26.0266C31.9601 26.0533 32.1467 26.0933 32.3334 26.1333C32.7201 26.2133 33.1067 26.32 33.4667 26.4533C33.5201 26.48 33.5734 26.5066 33.6267 26.52C33.7734 26.56 33.9201 26.6133 34.0534 26.68C34.4667 26.8533 34.8801 27.0533 35.2667 27.28C35.4934 27.4133 35.7067 27.5466 35.9201 27.6933C36.2001 27.88 36.4801 28.0933 36.7334 28.3066C36.7867 28.3466 36.8401 28.4 36.8934 28.4533C37.1467 28.6533 37.3734 28.88 37.6001 29.1066C37.8801 29.3866 38.1334 29.6933 38.3734 30C38.7334 30.4533 39.0401 30.9333 39.3067 31.44C39.5734 31.9066 39.7867 32.4 39.9601 32.92C40.2667 33.7466 40.4667 34.6266 40.5467 35.5333C40.5867 36.0133 40.6001 36.5066 40.5734 37Z" fill="#E2B468"/>
<g style="mix-blend-mode:screen" opacity="0.22">
<path d="M37.6001 29.1067L21.3468 42.5733C21.0401 42.1467 20.7601 41.68 20.5334 41.2C20.2934 40.72 20.0934 40.2267 19.9201 39.72C19.6268 38.8 19.4534 37.8267 19.4268 36.8133L32.3334 26.12C32.7868 26.2133 33.2134 26.3467 33.6268 26.5067C35.1601 27.0667 36.5068 27.96 37.6134 29.1067H37.6001Z" fill="#FFCF2D"/>
</g>
<g style="mix-blend-mode:screen" opacity="0.22">
<path d="M40.5467 35.5333L28.0667 45.8933C27.8934 45.8667 27.7334 45.8533 27.5734 45.8267C27.1867 45.7733 26.8001 45.6933 26.4267 45.6133C25.8934 45.4933 25.3867 45.3467 24.8934 45.1733C24.5201 45.0533 24.1601 44.92 23.8001 44.7733H23.7734C23.5201 44.6533 23.2801 44.5467 23.0401 44.4267C22.7067 44.1467 22.3734 43.8267 22.0801 43.4933L38.3734 30C38.7334 30.4533 39.0401 30.9333 39.3067 31.44C39.5734 31.9067 39.7867 32.4 39.9601 32.92C40.2667 33.7467 40.4667 34.6267 40.5467 35.5333Z" fill="#FFCF2D"/>
</g>
<path d="M35.3599 30.0933C35.3599 30.2133 35.3199 30.32 35.2533 30.3867L30.2266 35.2667C30.0533 35.4267 29.7999 35.4267 29.6266 35.2667L24.7466 30.3867C24.6666 30.32 24.6133 30.2133 24.6133 30.0933C24.6133 29.8533 24.8133 29.6667 25.0533 29.6667H27.2399V14.24C27.3866 14.2 27.5333 14.1867 27.6799 14.16C27.8666 14.1333 28.0399 14.1067 28.2266 14.0933C28.9066 14 29.5999 13.9733 30.3066 13.9867C30.7066 14 31.1199 14.0133 31.5466 14.0533C31.5866 14.0667 31.6133 14.0667 31.6399 14.0667C31.9866 14.1067 32.3333 14.16 32.6533 14.2133V29.6667H34.9333C35.1733 29.6667 35.3599 29.8533 35.3599 30.0933Z" fill="#188B51"/>
<path d="M33.5868 30.5867L29.9201 34.0667L27.7201 31.88L26.4268 30.5867H28.2268V14.0933C28.9068 14 29.6001 13.9733 30.3068 13.9867C30.7068 14 31.1201 14.0133 31.5468 14.0533C31.5868 14.0667 31.6134 14.0667 31.6401 14.0667V30.5867H33.5868Z" fill="#E5E3D7"/>
</g>
<defs>
<filter id="filter0_b_270_619" x="-180.194" y="-180.194" width="420.387" height="420.387" filterUnits="userSpaceOnUse" color-interpolation-filters="sRGB">
<feFlood flood-opacity="0" result="BackgroundImageFix"/>
<feGaussianBlur in="BackgroundImageFix" stdDeviation="90.0968"/>
<feComposite in2="SourceAlpha" operator="in" result="effect1_backgroundBlur_270_619"/>
<feBlend mode="normal" in="SourceGraphic" in2="effect1_backgroundBlur_270_619" result="shape"/>
</filter>
<linearGradient id="paint0_linear_270_619" x1="71.5057" y1="23.986" x2="51.0163" y2="24.6363" gradientUnits="userSpaceOnUse">
<stop stop-color="#58D6AA"/>
<stop offset="1" stop-color="#EFEFEF" stop-opacity="0"/>
</linearGradient>
<linearGradient id="paint1_linear_270_619" x1="0" y1="0" x2="24.2804" y2="12.9063" gradientUnits="userSpaceOnUse">
<stop stop-color="#56A589"/>
<stop offset="1" stop-color="white" stop-opacity="0"/>
</linearGradient>
<clipPath id="clip0_270_619">
<rect width="32" height="32" fill="white" transform="translate(14 14)"/>
</clipPath>
</defs>
</svg>
