<svg width="60" height="60" viewBox="0 0 60 60" fill="none" xmlns="http://www.w3.org/2000/svg">
<g filter="url(#filter0_b_467_10354)">
<circle cx="30" cy="30" r="30" fill="#1C1F1E"/>
<circle cx="30" cy="30" r="29.5" stroke="url(#paint0_linear_467_10354)" stroke-opacity="0.6"/>
<circle cx="30" cy="30" r="29.5" stroke="url(#paint1_linear_467_10354)"/>
</g>
<g clip-path="url(#clip0_467_10354)">
<path d="M45.9601 31.08L45.9068 31.56C45.8534 32.04 45.7868 32.5467 45.6934 33C45.6534 33.2 45.6001 33.4267 45.5601 33.6267C45.1068 35.6533 44.2534 37.5333 43.1068 39.16C42.6534 39.8267 42.1334 40.4667 41.5734 41.0533C41.1201 41.52 40.6401 41.96 40.1468 42.3733C37.7068 44.3867 34.6934 45.6667 31.4268 45.96C30.5201 46.0533 29.6268 46.04 28.6934 45.9733L28.4401 45.9467C27.7601 45.88 27.0801 45.76 26.4268 45.6267C25.5068 45.4133 24.6401 45.12 23.8001 44.7867H23.7734C21.3468 43.76 19.2534 42.1467 17.6401 40.1733C16.8934 39.2533 16.2268 38.2533 15.6934 37.1733C15.3334 36.4533 15.0268 35.7067 14.7601 34.9333C14.2001 33.12 13.9201 31.2133 14.0401 29.2267C14.0134 29.1733 14.0401 29.0933 14.0401 29.0533C14.0401 28.8533 14.0534 28.64 14.0801 28.44C14.1201 28.04 14.1868 27.6533 14.2401 27.28C14.2934 26.9733 14.3468 26.68 14.4268 26.3733C14.8401 24.48 15.6268 22.72 16.6401 21.1733C17.0934 20.48 17.6134 19.84 18.1868 19.2267C18.6801 18.64 19.2401 18.1067 19.8534 17.6267C22.0668 15.8267 24.7601 14.5867 27.6801 14.1733C28.5468 14.0267 29.4134 14 30.3068 14C30.7201 14.0133 31.1201 14.0267 31.5468 14.0667C31.9201 14.1067 32.3068 14.16 32.6534 14.2267C33.6401 14.3733 34.5868 14.6133 35.4668 14.96C39.1868 16.32 42.2401 19.0133 44.0534 22.4133C44.4401 23.12 44.7734 23.8667 45.0401 24.6267C45.7468 26.56 46.0801 28.6267 45.9734 30.7867C45.9868 30.8933 45.9734 30.96 45.9734 31.0667L45.9601 31.08Z" fill="#C04B2E"/>
<path d="M40.2671 29.1734C40.1871 29.3734 39.8138 29.76 31.2938 37.3067C31.1604 37.4267 30.9871 37.4934 30.8271 37.4934C30.6671 37.4934 30.5204 37.44 30.3871 37.36C30.1071 37.1467 30.0004 36.8 30.1338 36.48L32.5204 30.8667H30.6804C30.4404 30.8667 30.2138 30.76 30.0804 30.5467C29.9471 30.3467 29.9204 30.0934 30.0138 29.8667L32.9604 22.96C33.0804 22.6934 33.3471 22.52 33.6404 22.52H39.0671C39.3071 22.52 39.5338 22.64 39.6671 22.8534C39.8004 23.0667 39.8271 23.3067 39.7338 23.5334L37.8804 27.8667C37.8404 27.9734 37.9204 28.08 38.0404 28.08C39.9071 28.0267 39.9871 28.1334 40.2004 28.4267C40.3471 28.6267 40.3604 28.9467 40.2538 29.1734H40.2671Z" fill="#E5E3D7"/>
<path d="M37.0536 29.64C37.4403 29.6133 37.8536 29.6 38.2536 29.5867C36.267 31.3733 34.2803 33.16 32.2936 34.9467L34.387 30.5467C34.507 30.3067 34.4803 30.0133 34.3336 29.8C34.1736 29.5733 33.9336 29.44 33.6536 29.44H31.627L34.027 23.8267C34.1203 23.6133 34.3336 23.4667 34.5736 23.4667H38.1203C38.2536 23.4667 38.347 23.6133 38.2936 23.7333L36.2536 28.5333C36.1336 28.7733 36.1603 29.0667 36.3203 29.2933C36.4803 29.52 36.7603 29.64 37.027 29.64H37.0536Z" fill="#6297B9"/>
<path d="M29.6803 26.6534C28.6003 25.7067 27.5337 24.7467 26.4537 23.8C25.5737 24.6934 24.6803 25.5867 23.8003 26.48C23.2137 25.8667 22.6137 25.2667 22.027 24.6667L21.3203 26.3334L23.8003 28.8134L26.4937 26.1334L28.987 28.2934L29.6803 26.6667V26.6534ZM28.0403 30.5067C27.5203 30.1067 26.987 29.7067 26.4537 29.3067C25.5737 30.2 24.6803 31.0934 23.8003 31.9867C22.9203 31.08 22.027 30.1734 21.147 29.2667C21.147 29.2667 20.7337 28.8534 20.387 28.5067L19.667 30.1867L23.8003 34.32L26.4937 31.64L27.307 32.2267L29.4537 33.7734L30.147 32.1334C29.4403 31.6 28.7337 31.0534 28.027 30.52L28.0403 30.5067Z" fill="#E2B468"/>
<path d="M27.9733 31.3734H27.9866L27.96 31.4L27.9733 31.3734Z" fill="white"/>
</g>
<defs>
<filter id="filter0_b_467_10354" x="-180.194" y="-180.194" width="420.387" height="420.387" filterUnits="userSpaceOnUse" color-interpolation-filters="sRGB">
<feFlood flood-opacity="0" result="BackgroundImageFix"/>
<feGaussianBlur in="BackgroundImageFix" stdDeviation="90.0968"/>
<feComposite in2="SourceAlpha" operator="in" result="effect1_backgroundBlur_467_10354"/>
<feBlend mode="normal" in="SourceGraphic" in2="effect1_backgroundBlur_467_10354" result="shape"/>
</filter>
<linearGradient id="paint0_linear_467_10354" x1="71.5057" y1="23.986" x2="51.0163" y2="24.6363" gradientUnits="userSpaceOnUse">
<stop stop-color="#58D6AA"/>
<stop offset="1" stop-color="#EFEFEF" stop-opacity="0"/>
</linearGradient>
<linearGradient id="paint1_linear_467_10354" x1="0" y1="0" x2="24.2804" y2="12.9063" gradientUnits="userSpaceOnUse">
<stop stop-color="#56A589"/>
<stop offset="1" stop-color="white" stop-opacity="0"/>
</linearGradient>
<clipPath id="clip0_467_10354">
<rect width="32" height="32" fill="white" transform="translate(14 14)"/>
</clipPath>
</defs>
</svg>
