<svg width="20" height="20" viewBox="0 0 20 20" fill="none" xmlns="http://www.w3.org/2000/svg">
<g id="globe-02" clip-path="url(#clip0_30_1158)">
<path id="Icon" d="M9.99996 1.66666C12.0844 3.94862 13.2689 6.91002 13.3333 9.99999C13.2689 13.09 12.0844 16.0514 9.99996 18.3333M9.99996 1.66666C7.91556 3.94862 6.731 6.91002 6.66663 9.99999C6.731 13.09 7.91556 16.0514 9.99996 18.3333M9.99996 1.66666C5.39759 1.66666 1.66663 5.39762 1.66663 9.99999C1.66663 14.6024 5.39759 18.3333 9.99996 18.3333M9.99996 1.66666C14.6023 1.66666 18.3333 5.39762 18.3333 9.99999C18.3333 14.6024 14.6023 18.3333 9.99996 18.3333M2.08331 7.49999H17.9166M2.08329 12.5H17.9166" stroke="white" stroke-width="1.5" stroke-linecap="round" stroke-linejoin="round"/>
</g>
<defs>
<clipPath id="clip0_30_1158">
<rect width="20" height="20" fill="white"/>
</clipPath>
</defs>
</svg>
