<svg width="167" height="56" viewBox="0 0 167 56" fill="none" xmlns="http://www.w3.org/2000/svg">
<rect x="0.5" y="0.5" width="166" height="55" rx="7.5" fill="#262A32" stroke="#262A32"/>
<rect x="16.5" y="8.5" width="134" height="39" rx="4.5" fill="#262A32"/>
<rect x="16.5" y="8.5" width="134" height="39" rx="4.5" stroke="#262A32"/>
<path d="M84.136 29.7509C81.784 29.7509 79.867 31.5399 79.867 34.0039C79.867 36.4529 81.784 38.2569 84.136 38.2569C86.489 38.2569 88.406 36.4529 88.406 34.0039C88.405 31.5399 86.488 29.7509 84.136 29.7509ZM84.136 36.5829C82.847 36.5829 81.736 35.5199 81.736 34.0049C81.736 32.4739 82.848 31.4269 84.136 31.4269C85.425 31.4269 86.536 32.4739 86.536 34.0049C86.536 35.5189 85.425 36.5829 84.136 36.5829ZM74.822 29.7509C72.47 29.7509 70.553 31.5399 70.553 34.0039C70.553 36.4529 72.47 38.2569 74.822 38.2569C77.175 38.2569 79.092 36.4529 79.092 34.0039C79.092 31.5399 77.175 29.7509 74.822 29.7509ZM74.822 36.5829C73.533 36.5829 72.422 35.5199 72.422 34.0049C72.422 32.4739 73.534 31.4269 74.822 31.4269C76.111 31.4269 77.222 32.4739 77.222 34.0049C77.223 35.5189 76.111 36.5829 74.822 36.5829ZM63.744 31.0569V32.8609H68.062C67.933 33.8759 67.595 34.6169 67.079 35.1319C66.451 35.7599 65.468 36.4529 63.744 36.4529C61.086 36.4529 59.008 34.3099 59.008 31.6519C59.008 28.9939 61.086 26.8509 63.744 26.8509C65.178 26.8509 66.225 27.4149 66.998 28.1399L68.271 26.8669C67.191 25.8359 65.758 25.0469 63.744 25.0469C60.103 25.0469 57.042 28.0109 57.042 31.6519C57.042 35.2929 60.103 38.2569 63.744 38.2569C65.709 38.2569 67.192 37.6119 68.351 36.4039C69.543 35.2119 69.914 33.5359 69.914 32.1829C69.914 31.7649 69.882 31.3779 69.817 31.0559H63.744V31.0569ZM109.052 32.4579C108.698 31.5079 107.618 29.7509 105.411 29.7509C103.22 29.7509 101.399 31.4749 101.399 34.0039C101.399 36.3879 103.204 38.2569 105.62 38.2569C107.569 38.2569 108.697 37.0649 109.165 36.3719L107.715 35.4049C107.232 36.1139 106.571 36.5809 105.62 36.5809C104.67 36.5809 103.993 36.1459 103.558 35.2919L109.245 32.9399L109.052 32.4579ZM103.252 33.8759C103.204 32.2319 104.525 31.3949 105.476 31.3949C106.217 31.3949 106.845 31.7659 107.055 32.2969L103.252 33.8759ZM98.629 37.9999H100.497V25.4989H98.629V37.9999ZM95.567 30.7019H95.503C95.084 30.2019 94.278 29.7509 93.264 29.7509C91.137 29.7509 89.188 31.6199 89.188 34.0209C89.188 36.4049 91.137 38.2579 93.264 38.2579C94.279 38.2579 95.084 37.8069 95.503 37.2919H95.567V37.9039C95.567 39.5309 94.697 40.4009 93.296 40.4009C92.152 40.4009 91.443 39.5799 91.153 38.8869L89.526 39.5639C89.993 40.6909 91.233 42.0769 93.296 42.0769C95.487 42.0769 97.34 40.7879 97.34 37.6459V30.0099H95.568V30.7019H95.567ZM93.425 36.5829C92.136 36.5829 91.057 35.5029 91.057 34.0209C91.057 32.5219 92.136 31.4269 93.425 31.4269C94.697 31.4269 95.696 32.5219 95.696 34.0209C95.696 35.5029 94.697 36.5829 93.425 36.5829ZM117.806 25.4989H113.335V37.9999H115.2V33.2639H117.805C119.873 33.2639 121.907 31.7669 121.907 29.3819C121.907 26.9969 119.874 25.4989 117.806 25.4989ZM117.854 31.5239H115.2V27.2389H117.854C119.249 27.2389 120.041 28.3939 120.041 29.3819C120.041 30.3499 119.249 31.5239 117.854 31.5239ZM129.386 29.7289C128.035 29.7289 126.636 30.3239 126.057 31.6429L127.713 32.3339C128.067 31.6429 128.727 31.4169 129.418 31.4169C130.383 31.4169 131.364 31.9959 131.38 33.0249V33.1539C131.042 32.9609 130.318 32.6719 129.434 32.6719C127.649 32.6719 125.831 33.6529 125.831 35.4859C125.831 37.1589 127.295 38.2359 128.935 38.2359C130.189 38.2359 130.881 37.6729 131.315 37.0129H131.379V37.9779H133.181V33.1849C133.182 30.9669 131.524 29.7289 129.386 29.7289ZM129.16 36.5799C128.55 36.5799 127.697 36.2739 127.697 35.5179C127.697 34.5529 128.759 34.1829 129.676 34.1829C130.495 34.1829 130.882 34.3599 131.38 34.6009C131.235 35.7599 130.238 36.5799 129.16 36.5799ZM139.743 30.0019L137.604 35.4219H137.54L135.32 30.0019H133.31L136.639 37.5769L134.741 41.7909H136.687L141.818 30.0019H139.743ZM122.937 37.9999H124.802V25.4989H122.937V37.9999Z" fill="white"/>
<path d="M63.418 18.2432C63.418 19.0812 63.1701 19.7482 62.673 20.2462C62.109 20.8382 61.3731 21.1342 60.4691 21.1342C59.6031 21.1342 58.8661 20.8342 58.2611 20.2342C57.6551 19.6332 57.3521 18.8892 57.3521 18.0012C57.3521 17.1122 57.6551 16.3682 58.2611 15.7682C58.8661 15.1672 59.6031 14.8672 60.4691 14.8672C60.8991 14.8672 61.3101 14.9512 61.7001 15.1182C62.0911 15.2862 62.404 15.5092 62.6381 15.7882L62.111 16.3162C61.714 15.8412 61.167 15.6042 60.468 15.6042C59.836 15.6042 59.29 15.8262 58.829 16.2702C58.368 16.7142 58.1381 17.2912 58.1381 18.0002C58.1381 18.7092 58.368 19.2862 58.829 19.7302C59.29 20.1742 59.836 20.3962 60.468 20.3962C61.138 20.3962 61.6971 20.1732 62.1441 19.7262C62.4341 19.4352 62.602 19.0302 62.647 18.5112H60.468V17.7902H63.375C63.405 17.9472 63.418 18.0982 63.418 18.2432Z" fill="white"/>
<path d="M68.0281 15.7372H65.2961V17.6392H67.7601V18.3602H65.2961V20.2622H68.0281V21.0002H64.5251V15.0002H68.0281V15.7372Z" fill="white"/>
<path d="M71.279 21.0002H70.508V15.7372H68.832V15.0002H72.955V15.7372H71.279V21.0002Z" fill="white"/>
<path d="M75.938 21.0002V15.0002H76.709V21.0002H75.938Z" fill="white"/>
<path d="M80.1281 21.0002H79.3572V15.7372H77.6812V15.0002H81.8042V15.7372H80.1281V21.0002Z" fill="white"/>
<path d="M89.6089 20.2252C89.0189 20.8312 88.2859 21.1342 87.4089 21.1342C86.5319 21.1342 85.7989 20.8312 85.2099 20.2252C84.6199 19.6192 84.3259 18.8772 84.3259 18.0002C84.3259 17.1232 84.6199 16.3812 85.2099 15.7752C85.7989 15.1692 86.5319 14.8652 87.4089 14.8652C88.2809 14.8652 89.0129 15.1702 89.6049 15.7792C90.1969 16.3882 90.4929 17.1282 90.4929 18.0002C90.4929 18.8772 90.1979 19.6192 89.6089 20.2252ZM85.7789 19.7222C86.2229 20.1722 86.7659 20.3962 87.4089 20.3962C88.0519 20.3962 88.5959 20.1712 89.0389 19.7222C89.4829 19.2722 89.7059 18.6982 89.7059 18.0002C89.7059 17.3022 89.4829 16.7282 89.0389 16.2782C88.5959 15.8282 88.0519 15.6042 87.4089 15.6042C86.7659 15.6042 86.2229 15.8292 85.7789 16.2782C85.3359 16.7282 85.1129 17.3022 85.1129 18.0002C85.1129 18.6982 85.3359 19.2722 85.7789 19.7222Z" fill="white"/>
<path d="M91.5749 21.0002V15.0002H92.513L95.429 19.6672H95.4619L95.429 18.5112V15.0002H96.1999V21.0002H95.3949L92.344 16.1062H92.3109L92.344 17.2622V21.0002H91.5749Z" fill="white"/>
<path d="M63.418 18.2432C63.418 19.0812 63.1701 19.7482 62.673 20.2462C62.109 20.8382 61.3731 21.1342 60.4691 21.1342C59.6031 21.1342 58.8661 20.8342 58.2611 20.2342C57.6551 19.6332 57.3521 18.8892 57.3521 18.0012C57.3521 17.1122 57.6551 16.3682 58.2611 15.7682C58.8661 15.1672 59.6031 14.8672 60.4691 14.8672C60.8991 14.8672 61.3101 14.9512 61.7001 15.1182C62.0911 15.2862 62.404 15.5092 62.6381 15.7882L62.111 16.3162C61.714 15.8412 61.167 15.6042 60.468 15.6042C59.836 15.6042 59.29 15.8262 58.829 16.2702C58.368 16.7142 58.1381 17.2912 58.1381 18.0002C58.1381 18.7092 58.368 19.2862 58.829 19.7302C59.29 20.1742 59.836 20.3962 60.468 20.3962C61.138 20.3962 61.6971 20.1732 62.1441 19.7262C62.4341 19.4352 62.602 19.0302 62.647 18.5112H60.468V17.7902H63.375C63.405 17.9472 63.418 18.0982 63.418 18.2432Z" stroke="white" stroke-width="0.2" stroke-miterlimit="10"/>
<path d="M68.0281 15.7372H65.2961V17.6392H67.7601V18.3602H65.2961V20.2622H68.0281V21.0002H64.5251V15.0002H68.0281V15.7372Z" stroke="white" stroke-width="0.2" stroke-miterlimit="10"/>
<path d="M71.279 21.0002H70.508V15.7372H68.832V15.0002H72.955V15.7372H71.279V21.0002Z" stroke="white" stroke-width="0.2" stroke-miterlimit="10"/>
<path d="M75.938 21.0002V15.0002H76.709V21.0002H75.938Z" stroke="white" stroke-width="0.2" stroke-miterlimit="10"/>
<path d="M80.1281 21.0002H79.3572V15.7372H77.6812V15.0002H81.8042V15.7372H80.1281V21.0002Z" stroke="white" stroke-width="0.2" stroke-miterlimit="10"/>
<path d="M89.6089 20.2252C89.0189 20.8312 88.2859 21.1342 87.4089 21.1342C86.5319 21.1342 85.7989 20.8312 85.2099 20.2252C84.6199 19.6192 84.3259 18.8772 84.3259 18.0002C84.3259 17.1232 84.6199 16.3812 85.2099 15.7752C85.7989 15.1692 86.5319 14.8652 87.4089 14.8652C88.2809 14.8652 89.0129 15.1702 89.6049 15.7792C90.1969 16.3882 90.4929 17.1282 90.4929 18.0002C90.4929 18.8772 90.1979 19.6192 89.6089 20.2252ZM85.7789 19.7222C86.2229 20.1722 86.7659 20.3962 87.4089 20.3962C88.0519 20.3962 88.5959 20.1712 89.0389 19.7222C89.4829 19.2722 89.7059 18.6982 89.7059 18.0002C89.7059 17.3022 89.4829 16.7282 89.0389 16.2782C88.5959 15.8282 88.0519 15.6042 87.4089 15.6042C86.7659 15.6042 86.2229 15.8292 85.7789 16.2782C85.3359 16.7282 85.1129 17.3022 85.1129 18.0002C85.1129 18.6982 85.3359 19.2722 85.7789 19.7222Z" stroke="white" stroke-width="0.2" stroke-miterlimit="10"/>
<path d="M91.5749 21.0002V15.0002H92.513L95.429 19.6672H95.4619L95.429 18.5112V15.0002H96.1999V21.0002H95.3949L92.344 16.1062H92.3109L92.344 17.2622V21.0002H91.5749Z" stroke="white" stroke-width="0.2" stroke-miterlimit="10"/>
<path fill-rule="evenodd" clip-rule="evenodd" d="M26.1565 15.9667C26.0384 16.2342 25.9731 16.5619 25.9731 16.9432V39.0592C25.9731 39.4413 26.0385 39.7691 26.1567 40.0365L38.1907 28.0008L26.1565 15.9667ZM26.8517 40.7557C27.2978 40.9465 27.8797 40.886 28.5141 40.5262L42.6712 32.4814L38.8978 28.7079L26.8517 40.7557ZM43.5737 31.9696L48.0151 29.4462C49.4121 28.6512 49.4121 27.3522 48.0151 26.5582L43.5717 24.0333L39.6048 28.0008L43.5737 31.9696ZM42.6699 23.5209L28.5141 15.4772C27.8796 15.1166 27.2977 15.0564 26.8516 15.2476L38.8977 27.2937L42.6699 23.5209Z" fill="white"/>
</svg>
