<svg width="167" height="56" viewBox="0 0 167 56" fill="none" xmlns="http://www.w3.org/2000/svg">
<rect x="0.5" y="0.5" width="166" height="55" rx="7.5" fill="#262A32" stroke="#262A32"/>
<rect x="16.5" y="8.5" width="134" height="39" rx="6.5" fill="#262A32"/>
<rect x="16.5" y="8.5" width="134" height="39" rx="6.5" stroke="#262A32"/>
<path d="M97.5257 27.2009V29.4919H96.0896V30.9943H97.5257V36.0993C97.5257 37.8425 98.3143 38.5397 100.298 38.5397C100.647 38.5397 100.979 38.4982 101.269 38.4484V36.9626C101.02 36.9875 100.863 37.0041 100.589 37.0041C99.7005 37.0041 99.3104 36.589 99.3104 35.6428V30.9943H101.269V29.4919H99.3104V27.2009H97.5257Z" fill="white"/>
<path d="M106.323 38.6642C108.963 38.6642 110.581 36.8962 110.581 33.966C110.581 31.0524 108.955 29.2761 106.323 29.2761C103.684 29.2761 102.057 31.0524 102.057 33.966C102.057 36.8962 103.675 38.6642 106.323 38.6642ZM106.323 37.0788C104.771 37.0788 103.899 35.9416 103.899 33.966C103.899 32.007 104.771 30.8615 106.323 30.8615C107.867 30.8615 108.747 32.007 108.747 33.966C108.747 35.9333 107.867 37.0788 106.323 37.0788Z" fill="white"/>
<path d="M111.966 38.4899H113.751V33.1525C113.751 31.8825 114.706 31.0275 116.059 31.0275C116.374 31.0275 116.905 31.0856 117.055 31.1354V29.3757C116.864 29.3259 116.524 29.301 116.258 29.301C115.079 29.301 114.075 29.9484 113.817 30.8366H113.685V29.4504H111.966V38.4899Z" fill="white"/>
<path d="M121.486 30.7951C122.806 30.7951 123.669 31.7165 123.711 33.1359H119.145C119.245 31.7248 120.166 30.7951 121.486 30.7951ZM123.702 36.0495C123.37 36.7551 122.632 37.1452 121.552 37.1452C120.125 37.1452 119.203 36.1408 119.145 34.5554V34.4557H125.529V33.8332C125.529 30.9943 124.009 29.2761 121.494 29.2761C118.946 29.2761 117.327 31.1105 117.327 33.9992C117.327 36.8879 118.913 38.6642 121.503 38.6642C123.57 38.6642 125.014 37.6681 125.421 36.0495H123.702Z" fill="white"/>
<path d="M85.8221 35.1518C85.9598 37.3715 87.8095 38.791 90.5626 38.791C93.505 38.791 95.3462 37.3026 95.3462 34.9281C95.3462 33.0611 94.2966 32.0287 91.7499 31.435L90.382 31.0995C88.7645 30.7209 88.1106 30.2133 88.1106 29.3272C88.1106 28.2087 89.1259 27.4774 90.6487 27.4774C92.0941 27.4774 93.0921 28.1915 93.2727 29.3358H95.1483C95.0365 27.2451 93.1953 25.7739 90.6745 25.7739C87.9644 25.7739 86.1576 27.2451 86.1576 29.4562C86.1576 31.2802 87.1815 32.3642 89.427 32.889L91.0272 33.2762C92.6705 33.6634 93.3932 34.2312 93.3932 35.1776C93.3932 36.2788 92.2575 37.0789 90.7089 37.0789C89.0484 37.0789 87.8955 36.3304 87.7321 35.1518H85.8221Z" fill="white"/>
<path d="M67.3348 29.301C66.1063 29.301 65.0437 29.9152 64.4959 30.9445H64.3631V29.4504H62.6448V41.4948H64.4295V37.1203H64.5706C65.0437 38.0749 66.0647 38.6393 67.3514 38.6393C69.6341 38.6393 71.0867 36.8381 71.0867 33.966C71.0867 31.0939 69.6341 29.301 67.3348 29.301ZM66.8284 37.0373C65.3343 37.0373 64.3963 35.8586 64.3963 33.9743C64.3963 32.0817 65.3343 30.903 66.8367 30.903C68.3475 30.903 69.2522 32.0568 69.2522 33.966C69.2522 35.8835 68.3475 37.0373 66.8284 37.0373Z" fill="white"/>
<path d="M77.3316 29.301C76.103 29.301 75.0405 29.9152 74.4927 30.9445H74.3599V29.4504H72.6416V41.4948H74.4263V37.1203H74.5674C75.0405 38.0749 76.0615 38.6393 77.3482 38.6393C79.6309 38.6393 81.0835 36.8381 81.0835 33.966C81.0835 31.0939 79.6309 29.301 77.3316 29.301ZM76.8252 37.0373C75.3311 37.0373 74.3931 35.8586 74.3931 33.9743C74.3931 32.0817 75.3311 30.903 76.8335 30.903C78.3443 30.903 79.249 32.0568 79.249 33.966C79.249 35.8835 78.3443 37.0373 76.8252 37.0373Z" fill="white"/>
<path d="M59.4428 38.4899H61.4905L57.008 26.075H54.9346L50.4521 38.4899H52.431L53.5752 35.1948H58.3072L59.4428 38.4899ZM55.8724 28.3292H56.0186L57.8168 33.5773H54.0656L55.8724 28.3292Z" fill="white"/>
<path d="M51.6514 16.7107V22.6997H53.8137C55.5984 22.6997 56.6318 21.5999 56.6318 19.6865C56.6318 17.8022 55.5901 16.7107 53.8137 16.7107H51.6514ZM52.5811 17.5574H53.71C54.9509 17.5574 55.6855 18.3459 55.6855 19.699C55.6855 21.0728 54.9634 21.853 53.71 21.853H52.5811V17.5574Z" fill="white"/>
<path d="M59.7969 22.7869C61.1167 22.7869 61.9261 21.9028 61.9261 20.4377C61.9261 18.981 61.1126 18.0928 59.7969 18.0928C58.4771 18.0928 57.6636 18.981 57.6636 20.4377C57.6636 21.9028 58.4729 22.7869 59.7969 22.7869ZM59.7969 21.9941C59.0208 21.9941 58.585 21.4255 58.585 20.4377C58.585 19.4583 59.0208 18.8855 59.7969 18.8855C60.5689 18.8855 61.0088 19.4583 61.0088 20.4377C61.0088 21.4214 60.5689 21.9941 59.7969 21.9941Z" fill="white"/>
<path d="M68.8182 18.1799H67.9259L67.1207 21.6289H67.0501L66.1205 18.1799H65.2655L64.3358 21.6289H64.2694L63.4601 18.1799H62.5553L63.8004 22.6997H64.7176L65.6473 19.3711H65.7179L66.6517 22.6997H67.5772L68.8182 18.1799Z" fill="white"/>
<path d="M69.8458 22.6997H70.7382V20.0559C70.7382 19.3503 71.1574 18.9104 71.8173 18.9104C72.4772 18.9104 72.7926 19.2715 72.7926 19.9978V22.6997H73.685V19.7737C73.685 18.6987 73.1288 18.0928 72.1203 18.0928C71.4396 18.0928 70.9914 18.3958 70.7714 18.8979H70.705V18.1799H69.8458V22.6997Z" fill="white"/>
<path d="M75.0903 22.6997H75.9826V16.416H75.0903V22.6997Z" fill="white"/>
<path d="M79.3386 22.7869C80.6584 22.7869 81.4678 21.9028 81.4678 20.4377C81.4678 18.981 80.6543 18.0928 79.3386 18.0928C78.0188 18.0928 77.2053 18.981 77.2053 20.4377C77.2053 21.9028 78.0146 22.7869 79.3386 22.7869ZM79.3386 21.9941C78.5625 21.9941 78.1267 21.4255 78.1267 20.4377C78.1267 19.4583 78.5625 18.8855 79.3386 18.8855C80.1106 18.8855 80.5505 19.4583 80.5505 20.4377C80.5505 21.4214 80.1106 21.9941 79.3386 21.9941Z" fill="white"/>
<path d="M84.1265 22.0232C83.6409 22.0232 83.2881 21.7866 83.2881 21.3799C83.2881 20.9814 83.5704 20.7698 84.1929 20.7283L85.2969 20.6577V21.0354C85.2969 21.5957 84.7989 22.0232 84.1265 22.0232ZM83.8982 22.7744C84.4917 22.7744 84.9856 22.5171 85.2554 22.0647H85.326V22.6997H86.1851V19.6118C86.1851 18.6572 85.5459 18.0928 84.4129 18.0928C83.3877 18.0928 82.6573 18.5908 82.566 19.3669H83.4292C83.5289 19.0474 83.8733 18.8647 84.3714 18.8647C84.9815 18.8647 85.2969 19.1345 85.2969 19.6118V20.002L84.0726 20.0725C82.9976 20.1389 82.3916 20.6079 82.3916 21.4214C82.3916 22.2473 83.0267 22.7744 83.8982 22.7744Z" fill="white"/>
<path d="M89.2132 22.7744C89.8358 22.7744 90.3629 22.4797 90.6327 21.9858H90.7032V22.6997H91.5582V16.416H90.6659V18.8979H90.5995C90.3546 18.3999 89.8316 18.1052 89.2132 18.1052C88.0719 18.1052 87.3373 19.01 87.3373 20.4377C87.3373 21.8696 88.0636 22.7744 89.2132 22.7744ZM89.4664 18.9062C90.2135 18.9062 90.6825 19.4998 90.6825 20.4419C90.6825 21.3882 90.2176 21.9734 89.4664 21.9734C88.711 21.9734 88.2586 21.3965 88.2586 20.4377C88.2586 19.4873 88.7152 18.9062 89.4664 18.9062Z" fill="white"/>
<path d="M97.3447 22.7869C98.6645 22.7869 99.4738 21.9028 99.4738 20.4377C99.4738 18.981 98.6604 18.0928 97.3447 18.0928C96.0249 18.0928 95.2114 18.981 95.2114 20.4377C95.2114 21.9028 96.0207 22.7869 97.3447 22.7869ZM97.3447 21.9941C96.5686 21.9941 96.1328 21.4255 96.1328 20.4377C96.1328 19.4583 96.5686 18.8855 97.3447 18.8855C98.1166 18.8855 98.5566 19.4583 98.5566 20.4377C98.5566 21.4214 98.1166 21.9941 97.3447 21.9941Z" fill="white"/>
<path d="M100.655 22.6997H101.547V20.0559C101.547 19.3503 101.967 18.9104 102.626 18.9104C103.286 18.9104 103.602 19.2715 103.602 19.9978V22.6997H104.494V19.7737C104.494 18.6987 103.938 18.0928 102.929 18.0928C102.249 18.0928 101.801 18.3958 101.581 18.8979H101.514V18.1799H100.655V22.6997Z" fill="white"/>
<path d="M108.604 17.0552V18.2007H107.886V18.9519H108.604V21.5044C108.604 22.376 108.998 22.7246 109.99 22.7246C110.164 22.7246 110.33 22.7039 110.476 22.679V21.936C110.351 21.9485 110.272 21.9568 110.135 21.9568C109.691 21.9568 109.496 21.7493 109.496 21.2761V18.9519H110.476V18.2007H109.496V17.0552H108.604Z" fill="white"/>
<path d="M111.673 22.6997H112.566V20.0601C112.566 19.3752 112.973 18.9146 113.703 18.9146C114.334 18.9146 114.67 19.2798 114.67 20.002V22.6997H115.562V19.782C115.562 18.707 114.969 18.0969 114.006 18.0969C113.325 18.0969 112.848 18.3999 112.628 18.9062H112.558V16.416H111.673V22.6997Z" fill="white"/>
<path d="M118.781 18.8523C119.441 18.8523 119.873 19.313 119.894 20.0227H117.611C117.661 19.3171 118.122 18.8523 118.781 18.8523ZM119.89 21.4795C119.724 21.8323 119.354 22.0273 118.815 22.0273C118.101 22.0273 117.64 21.5251 117.611 20.7324V20.6826H120.803V20.3713C120.803 18.9519 120.043 18.0928 118.786 18.0928C117.511 18.0928 116.702 19.01 116.702 20.4543C116.702 21.8987 117.495 22.7869 118.79 22.7869C119.823 22.7869 120.545 22.2888 120.749 21.4795H119.89Z" fill="white"/>
<path d="M40.769 28.3011C40.7907 26.6201 41.6934 25.0295 43.1256 24.149C42.2221 22.8587 40.7088 22.0406 39.1344 21.9913C37.4552 21.8151 35.8272 22.9962 34.9715 22.9962C34.0992 22.9962 32.7817 22.0088 31.363 22.038C29.5137 22.0978 27.7898 23.1491 26.8901 24.7659C24.9561 28.1143 26.3987 33.0354 28.2513 35.742C29.1782 37.0673 30.2615 38.5478 31.6789 38.4953C33.066 38.4377 33.584 37.6108 35.2583 37.6108C36.9171 37.6108 37.4031 38.4953 38.8493 38.4619C40.3377 38.4377 41.2754 37.1306 42.1698 35.7927C42.8358 34.8484 43.3483 33.8047 43.6882 32.7002C41.9391 31.9604 40.771 30.2002 40.769 28.3011Z" fill="white"/>
<path d="M38.0373 20.2113C38.8489 19.2371 39.2487 17.9849 39.1518 16.7207C37.912 16.8509 36.7668 17.4435 35.9443 18.3803C35.14 19.2956 34.7214 20.5258 34.8006 21.7417C36.0408 21.7545 37.2601 21.178 38.0373 20.2113Z" fill="white"/>
</svg>
