<svg xmlns="http://www.w3.org/2000/svg" width="200" height="200" viewBox="0 0 200 200" fill="none">
  <path d="M185.572 64.8948L137.852 15.7253C128.219 5.86931 115.376 0.221484 101.647 0C101.315 0 101.093 0 100.761 0C87.2532 0 74.6313 5.0941 64.888 14.5072L15.7289 62.237C5.8749 71.8715 0.228226 84.7176 0.00678818 98.4496C-0.214649 112.182 4.98911 125.249 14.5109 135.105L62.2308 184.385C72.3062 194.795 85.8139 200 99.2108 200C112.165 200 125.008 195.238 135.084 185.493L177.932 143.965L184.354 137.763C204.726 118.051 205.279 85.2713 185.572 64.8948ZM31.4509 78.516L80.6101 30.7863C86.0353 25.4706 93.232 22.5914 100.761 22.5914C100.872 22.5914 101.093 22.5914 101.204 22.5914C108.954 22.7021 116.151 25.8029 121.576 31.4507L169.296 80.6201C179.482 91.1406 180.036 107.309 171.289 118.494C157.228 93.134 130.212 76.5227 100.429 76.5227C70.7561 76.5227 43.7407 93.0233 29.6794 118.272C24.9185 112.846 22.372 106.091 22.4827 98.7819C22.7041 91.1407 25.8042 83.8316 31.4509 78.516ZM78.5064 168.66L46.3979 135.548C55.2554 113.843 76.6242 99.1141 100.539 99.1141C124.233 99.1141 145.602 113.732 154.57 135.216L119.472 169.214C107.958 180.399 89.5783 180.177 78.5064 168.66Z" fill="#188D51"/>
  <path d="M121.024 119.38C114.824 119.38 109.73 124.474 109.73 130.675C109.73 136.877 114.824 141.971 121.024 141.971C127.224 141.971 132.317 136.877 132.317 130.675C132.317 124.474 127.335 119.38 121.024 119.38Z" fill="#188D51"/>
</svg>