<svg width="48" height="48" viewBox="0 0 48 48" fill="none" xmlns="http://www.w3.org/2000/svg">
<rect opacity="0.1" width="48" height="48" rx="16" fill="#FCFCFD"/>
<path d="M26.3254 11.5115L36.3627 18.0357C36.7174 18.2663 36.8947 18.3815 37.0232 18.5353C37.137 18.6714 37.2224 18.8288 37.2745 18.9984C37.3334 19.1899 37.3334 19.4014 37.3334 19.8244V29.6C37.3334 31.8402 37.3334 32.9603 36.8974 33.816C36.5139 34.5686 35.902 35.1806 35.1494 35.564C34.2937 36 33.1736 36 30.9334 36H17.0667C14.8265 36 13.7064 36 12.8508 35.564C12.0981 35.1806 11.4862 34.5686 11.1027 33.816C10.6667 32.9603 10.6667 31.8402 10.6667 29.6V19.8244C10.6667 19.4014 10.6667 19.1899 10.7256 18.9984C10.7778 18.8288 10.8632 18.6714 10.9769 18.5353C11.1054 18.3815 11.2828 18.2663 11.6374 18.0357L21.6748 11.5115M26.3254 11.5115C25.4837 10.9644 25.0629 10.6908 24.6095 10.5844C24.2087 10.4903 23.7915 10.4903 23.3907 10.5844C22.9373 10.6908 22.5165 10.9644 21.6748 11.5115M26.3254 11.5115L35.9575 17.7724C36.4161 18.0704 36.6454 18.2195 36.7248 18.4085C36.7942 18.5736 36.7942 18.7598 36.7248 18.9249C36.6454 19.1139 36.4161 19.263 35.9575 19.561L26.3254 25.8219C25.4837 26.369 25.0629 26.6425 24.6095 26.749C24.2087 26.843 23.7915 26.843 23.3907 26.749C22.9373 26.6425 22.5165 26.369 21.6748 25.8219L12.0427 19.561C11.5841 19.263 11.3548 19.1139 11.2754 18.9249C11.206 18.7598 11.206 18.5736 11.2754 18.4085C11.3548 18.2195 11.5841 18.0704 12.0427 17.7724L21.6748 11.5115" stroke="#FCFCFD" stroke-width="2" stroke-linecap="round" stroke-linejoin="round"/>
</svg>
