<svg width="40" height="40" viewBox="0 0 40 40" fill="none" xmlns="http://www.w3.org/2000/svg">
<g clip-path="url(#clip0_62_6425)">
<rect opacity="0.1" width="40" height="40" rx="20" fill="white"/>
<path d="M23.56 15.6402C23.4018 15.6402 23.2471 15.6871 23.1156 15.775C22.984 15.8629 22.8815 15.9878 22.8209 16.134C22.7604 16.2802 22.7445 16.4411 22.7754 16.5962C22.8063 16.7514 22.8825 16.894 22.9944 17.0058C23.1062 17.1177 23.2488 17.1939 23.404 17.2248C23.5592 17.2557 23.72 17.2398 23.8662 17.1793C24.0124 17.1187 24.1373 17.0162 24.2252 16.8846C24.3131 16.7531 24.36 16.5984 24.36 16.4402C24.36 16.228 24.2758 16.0245 24.1257 15.8745C23.9757 15.7244 23.7722 15.6402 23.56 15.6402ZM26.6267 17.2535C26.6137 16.7004 26.5101 16.1531 26.32 15.6335C26.1505 15.1889 25.8867 14.7863 25.5467 14.4535C25.2166 14.1118 24.8131 13.8496 24.3667 13.6868C23.8485 13.4909 23.3006 13.385 22.7467 13.3735C22.04 13.3335 21.8134 13.3335 20 13.3335C18.1867 13.3335 17.96 13.3335 17.2534 13.3735C16.6995 13.385 16.1516 13.4909 15.6334 13.6868C15.1878 13.8513 14.7847 14.1132 14.4534 14.4535C14.1117 14.7836 13.8495 15.1871 13.6867 15.6335C13.4908 16.1517 13.3848 16.6996 13.3734 17.2535C13.3334 17.9602 13.3334 18.1868 13.3334 20.0002C13.3334 21.8135 13.3334 22.0402 13.3734 22.7468C13.3848 23.3007 13.4908 23.8486 13.6867 24.3668C13.8495 24.8132 14.1117 25.2167 14.4534 25.5468C14.7847 25.8871 15.1878 26.1491 15.6334 26.3135C16.1516 26.5094 16.6995 26.6154 17.2534 26.6268C17.96 26.6668 18.1867 26.6668 20 26.6668C21.8134 26.6668 22.04 26.6668 22.7467 26.6268C23.3006 26.6154 23.8485 26.5094 24.3667 26.3135C24.8131 26.1507 25.2166 25.8885 25.5467 25.5468C25.8882 25.2152 26.1523 24.8123 26.32 24.3668C26.5101 23.8472 26.6137 23.3 26.6267 22.7468C26.6267 22.0402 26.6667 21.8135 26.6667 20.0002C26.6667 18.1868 26.6667 17.9602 26.6267 17.2535ZM25.4267 22.6668C25.4219 23.09 25.3452 23.5093 25.2 23.9068C25.0936 24.197 24.9226 24.4591 24.7 24.6735C24.4838 24.8938 24.2222 25.0645 23.9334 25.1735C23.5358 25.3187 23.1166 25.3953 22.6934 25.4002C22.0267 25.4335 21.78 25.4402 20.0267 25.4402C18.2734 25.4402 18.0267 25.4402 17.36 25.4002C16.9206 25.4084 16.4831 25.3407 16.0667 25.2002C15.7906 25.0855 15.5409 24.9154 15.3334 24.7002C15.1121 24.486 14.9433 24.2236 14.84 23.9335C14.6773 23.5303 14.587 23.1015 14.5734 22.6668C14.5734 22.0002 14.5334 21.7535 14.5334 20.0002C14.5334 18.2468 14.5334 18.0002 14.5734 17.3335C14.5764 16.9009 14.6553 16.4721 14.8067 16.0668C14.9241 15.7854 15.1042 15.5346 15.3334 15.3335C15.5359 15.1043 15.7862 14.9222 16.0667 14.8002C16.4731 14.6535 16.9014 14.5769 17.3334 14.5735C18 14.5735 18.2467 14.5335 20 14.5335C21.7534 14.5335 22 14.5335 22.6667 14.5735C23.0899 14.5783 23.5092 14.655 23.9067 14.8002C24.2097 14.9126 24.4816 15.0954 24.7 15.3335C24.9185 15.5383 25.0892 15.7887 25.2 16.0668C25.3482 16.4728 25.4249 16.9013 25.4267 17.3335C25.46 18.0002 25.4667 18.2468 25.4667 20.0002C25.4667 21.7535 25.46 22.0002 25.4267 22.6668ZM20 16.5802C19.3239 16.5815 18.6633 16.7832 18.1018 17.1598C17.5403 17.5364 17.103 18.071 16.8451 18.696C16.5873 19.321 16.5205 20.0085 16.6532 20.6714C16.786 21.3344 17.1122 21.9432 17.5908 22.4208C18.0693 22.8984 18.6787 23.2235 19.3419 23.3549C20.0052 23.4864 20.6925 23.4182 21.317 23.1592C21.9416 22.9001 22.4753 22.4618 22.8508 21.8995C23.2263 21.3372 23.4267 20.6763 23.4267 20.0002C23.4276 19.5502 23.3395 19.1046 23.1675 18.6888C22.9956 18.273 22.7431 17.8954 22.4246 17.5775C22.1062 17.2597 21.728 17.0079 21.3119 16.8368C20.8958 16.6656 20.45 16.5784 20 16.5802ZM20 22.2202C19.561 22.2202 19.1318 22.09 18.7667 21.846C18.4016 21.6021 18.1171 21.2554 17.949 20.8497C17.781 20.4441 17.737 19.9977 17.8227 19.5671C17.9084 19.1364 18.1198 18.7409 18.4303 18.4304C18.7407 18.1199 19.1363 17.9085 19.5669 17.8228C19.9976 17.7372 20.4439 17.7811 20.8496 17.9492C21.2552 18.1172 21.602 18.4017 21.8459 18.7668C22.0898 19.1319 22.22 19.5611 22.22 20.0002C22.22 20.2917 22.1626 20.5804 22.0511 20.8497C21.9395 21.1191 21.776 21.3638 21.5698 21.5699C21.3637 21.7761 21.1189 21.9396 20.8496 22.0512C20.5803 22.1627 20.2916 22.2202 20 22.2202Z" fill="white"/>
</g>
<defs>
<clipPath id="clip0_62_6425">
<rect width="40" height="40" fill="white"/>
</clipPath>
</defs>
</svg>
