<svg width="40" height="40" viewBox="0 0 40 40" fill="none" xmlns="http://www.w3.org/2000/svg">
<g clip-path="url(#clip0_62_6420)">
<rect opacity="0.1" width="40" height="40" rx="20" fill="white"/>
<path d="M25.6466 13.3331H14.3533C14.2263 13.3313 14.1003 13.3546 13.9823 13.4016C13.8644 13.4485 13.7568 13.5182 13.6658 13.6068C13.5748 13.6953 13.5021 13.8009 13.452 13.9175C13.4018 14.0341 13.375 14.1595 13.3733 14.2864V25.7131C13.375 25.84 13.4018 25.9654 13.452 26.082C13.5021 26.1986 13.5748 26.3042 13.6658 26.3928C13.7568 26.4813 13.8644 26.551 13.9823 26.598C14.1003 26.6449 14.2263 26.6682 14.3533 26.6664H25.6466C25.7736 26.6682 25.8996 26.6449 26.0176 26.598C26.1355 26.551 26.2431 26.4813 26.3341 26.3928C26.4251 26.3042 26.4978 26.1986 26.548 26.082C26.5982 25.9654 26.6249 25.84 26.6266 25.7131V14.2864C26.6249 14.1595 26.5982 14.0341 26.548 13.9175C26.4978 13.8009 26.4251 13.6953 26.3341 13.6068C26.2431 13.5182 26.1355 13.4485 26.0176 13.4016C25.8996 13.3546 25.7736 13.3313 25.6466 13.3331ZM17.3933 24.4931H15.3933V18.4931H17.3933V24.4931ZM16.3933 17.6531C16.1175 17.6531 15.8529 17.5435 15.6579 17.3485C15.4629 17.1535 15.3533 16.8889 15.3533 16.6131C15.3533 16.3373 15.4629 16.0727 15.6579 15.8777C15.8529 15.6827 16.1175 15.5731 16.3933 15.5731C16.5398 15.5565 16.6881 15.571 16.8285 15.6157C16.969 15.6604 17.0985 15.7342 17.2084 15.8324C17.3183 15.9306 17.4063 16.0509 17.4665 16.1854C17.5268 16.32 17.5579 16.4657 17.5579 16.6131C17.5579 16.7605 17.5268 16.9062 17.4665 17.0408C17.4063 17.1753 17.3183 17.2956 17.2084 17.3938C17.0985 17.492 16.969 17.5658 16.8285 17.6105C16.6881 17.6552 16.5398 17.6697 16.3933 17.6531ZM24.6066 24.4931H22.6066V21.2731C22.6066 20.4664 22.32 19.9398 21.5933 19.9398C21.3684 19.9414 21.1494 20.012 20.9658 20.1419C20.7823 20.2718 20.6429 20.4549 20.5666 20.6664C20.5145 20.8231 20.4918 20.9881 20.5 21.1531V24.4864H18.5C18.5 24.4864 18.5 19.0331 18.5 18.4864H20.5V19.3331C20.6816 19.0178 20.9459 18.7581 21.2643 18.5819C21.5826 18.4057 21.943 18.3197 22.3066 18.3331C23.64 18.3331 24.6066 19.1931 24.6066 21.0398V24.4931Z" fill="white"/>
</g>
<defs>
<clipPath id="clip0_62_6420">
<rect width="40" height="40" fill="white"/>
</clipPath>
</defs>
</svg>
