<svg width="99" height="31" viewBox="0 0 99 31" fill="none" xmlns="http://www.w3.org/2000/svg">
<path d="M28.8822 10.0587L21.4551 2.43743C19.9559 0.909742 17.957 0.03433 15.8202 0C15.7685 0 15.734 0 15.6823 0C13.58 0 11.6155 0.789586 10.0991 2.24861L2.44803 9.64673C0.914365 11.1401 0.0355209 13.1312 0.00105651 15.2597C-0.0334079 17.3881 0.776501 19.4136 2.25847 20.9413L9.68555 28.5797C11.2537 30.1932 13.356 31 15.4411 31C17.4573 31 19.4562 30.2619 21.0243 28.7514L27.6932 22.3145L28.6926 21.3533C31.8634 18.2979 31.9495 13.2171 28.8822 10.0587ZM4.89499 12.17L12.5461 4.77187C13.3905 3.94795 14.5106 3.50166 15.6823 3.50166C15.6996 3.50166 15.734 3.50166 15.7513 3.50166C16.9575 3.51883 18.0776 3.99945 18.922 4.87486L26.3491 12.4961C27.9344 14.1268 28.0206 16.6329 26.6593 18.3666C24.4708 14.4358 20.2661 11.861 15.6307 11.861C11.0124 11.861 6.80777 14.4186 4.61928 18.3322C3.8783 17.4911 3.48196 16.4441 3.49919 15.3112C3.53365 14.1268 4.01615 12.9939 4.89499 12.17ZM12.2187 26.1423L7.22134 21.01C8.59991 17.6456 11.9257 15.3627 15.6479 15.3627C19.3356 15.3627 22.6614 17.6285 24.0572 20.9585L18.5946 26.2281C16.8024 27.9618 13.9419 27.9275 12.2187 26.1423Z" fill="#217457"/>
<path d="M18.8358 18.5038C17.8708 18.5038 17.0781 19.2934 17.0781 20.2547C17.0781 21.2159 17.8708 22.0055 18.8358 22.0055C19.8008 22.0055 20.5935 21.2159 20.5935 20.2547C20.5935 19.2934 19.818 18.5038 18.8358 18.5038Z" fill="#217457"/>
<path d="M41.7203 8.4967L41.7375 10.1102H45.0461V13.0454C43.926 13.0454 42.8059 13.0454 41.6858 13.0454C41.7031 17.8688 41.7031 22.675 41.7203 27.4984L38.0154 27.5327C38.0326 22.7093 38.0326 17.886 38.0498 13.0454H36.5679V10.1102H38.0671L38.0326 8.4452C38.0326 7.19216 37.9292 6.53989 38.8253 5.38983C38.9114 5.26968 39.2044 4.87488 39.7731 4.51442C40.807 3.84498 42.4613 3.41585 45.0461 3.48452V6.62571C43.2195 6.45406 41.7031 6.64288 41.7203 8.4967Z" fill="white"/>
<path d="M50.836 3.51883H47.1311V27.5327H50.836V3.51883Z" fill="white"/>
<path d="M56.6087 9.93854H52.9038V27.5327H56.6087V9.93854Z" fill="white"/>
<path d="M65.9831 23.9796C65.9831 23.9796 63.605 24.6833 62.7262 23.5848C62.5022 23.2929 62.4332 23.0011 62.416 22.8467C62.0886 20.8212 62.2954 13.6462 62.3299 12.7536C63.5016 12.7536 64.6734 12.7708 65.8452 12.7708V9.78409C64.6734 9.80126 63.5016 9.80125 62.3299 9.80125C62.3471 8.82285 62.3471 7.81012 62.3471 6.81454H58.6939V21.422C58.6939 24.3915 58.3837 28.6999 66.7585 27.2066L65.9831 23.9796Z" fill="white"/>
<path d="M82.2849 18.4696C82.2159 15.6202 82.6295 13.4402 80.9063 11.4662C80.3721 10.8483 79.1831 10.1102 77.9251 9.81839C75.0818 9.13179 71.0495 9.4236 69.0161 11.4147C67.9132 12.4961 67.5686 13.9037 67.5686 13.9037L70.8944 14.7104C71.2735 13.4917 72.4281 12.6163 74.4959 12.5648C76.2191 12.5305 77.5633 12.8394 78.2698 13.7148C78.8901 14.4873 78.9074 15.3627 78.4421 15.8948C77.322 17.1993 73.8583 16.9762 71.3252 17.474C68.4302 18.0404 66.4313 20.5294 66.9482 23.4131C67.3618 25.7132 69.4469 27.5327 72.9795 27.5327C77.3392 27.5327 78.735 25.0609 78.735 25.0609L78.9418 27.5327L82.3538 27.5155C82.3366 24.5975 82.3193 21.3876 82.2849 18.4696ZM78.7695 20.2891C78.7695 23.2758 75.0646 25.1639 72.5142 24.34C70.9806 23.8422 70.3085 22.3832 71.2046 21.1645C72.4453 19.4308 76.7706 20.392 78.7695 18.8129V20.2891Z" fill="white"/>
<path d="M98.9311 18.4696C98.8622 15.6202 99.2758 13.4402 97.5525 11.4662C97.0183 10.8483 95.8293 10.1102 94.5714 9.81839C91.728 9.13179 87.6957 9.4236 85.6623 11.4147C84.5595 12.4961 84.2148 13.9037 84.2148 13.9037L87.5406 14.7104C87.9197 13.4917 89.0743 12.6163 91.1421 12.5648C92.8654 12.5305 94.2095 12.8394 94.916 13.7148C95.5364 14.4873 95.5536 15.3627 95.0883 15.8948C93.9682 17.1993 90.5046 16.9762 87.9714 17.474C85.0764 18.0404 83.0775 20.5294 83.5945 23.4131C84.008 25.7132 86.0931 27.5327 89.6257 27.5327C93.9855 27.5327 95.3813 25.0609 95.3813 25.0609L95.5881 27.5327L99 27.5155C98.9828 24.5975 98.9483 21.3876 98.9311 18.4696ZM95.4157 20.2891C95.4157 23.2758 91.7108 25.1639 89.1604 24.34C87.6268 23.8422 86.9547 22.3832 87.8508 21.1645C89.0915 19.4308 93.4168 20.392 95.4157 18.8129V20.2891Z" fill="white"/>
<path d="M55.3508 5.11518L56.4709 6.2309C56.7983 6.55704 56.7983 7.08915 56.4709 7.41529L55.3508 8.53101C55.0234 8.85715 54.4892 8.85715 54.1618 8.53101L53.0417 7.41529C52.7143 7.08915 52.7143 6.55704 53.0417 6.2309L54.1618 5.11518C54.4892 4.78904 55.0234 4.78904 55.3508 5.11518Z" fill="#217457"/>
</svg>
