<svg width="40" height="40" viewBox="0 0 40 40" fill="none" xmlns="http://www.w3.org/2000/svg">
<g filter="url(#filter0_b_43_288)">
<circle cx="20" cy="20" r="20" fill="#1C1F1E"/>
<circle cx="20" cy="20" r="19.5" stroke="url(#paint0_linear_43_288)" stroke-opacity="0.6"/>
<circle cx="20" cy="20" r="19.5" stroke="url(#paint1_linear_43_288)"/>
</g>
<g clip-path="url(#clip0_43_288)">
<path d="M32 19.64V20C32 20.22 32 20.45 31.98 20.68C31.98 20.82 31.96 20.96 31.95 21.09C31.93 21.24 31.91 21.41 31.89 21.57C31.86 21.77 31.83 21.98 31.8 22.18C31.59 23.34 31.21 24.45 30.69 25.46C30.62 25.6 30.54 25.74 30.47 25.87C30.3 26.18 30.12 26.48 29.92 26.78C29.78 26.99 29.62 27.2 29.46 27.4C29.16 27.78 28.83 28.14 28.49 28.49C28.21 28.77 27.91 29.04 27.6 29.3C27.2 29.63 26.78 29.93 26.33 30.21C25.38 30.8 24.34 31.27 23.23 31.58C22.91 31.67 22.57 31.75 22.24 31.81C22.06 31.85 21.88 31.88 21.7 31.9C21.21 31.97 20.72 32 20.2 32.02H20.01C19.5 32.02 18.98 31.98 18.49 31.92C18.43 31.92 18.38 31.9 18.33 31.9C17.8 31.82 17.29 31.71 16.8 31.58C16.69 31.55 16.58 31.52 16.48 31.49H16.46C15.48 31.18 14.55 30.75 13.7 30.22C13.26 29.94 12.84 29.64 12.44 29.31C12.13 29.06 11.83 28.78 11.55 28.5C11.03 27.98 10.55 27.41 10.13 26.8C10.04 26.67 9.96002 26.54 9.87002 26.41C9.68002 26.11 9.50002 25.8 9.34002 25.48C9.22002 25.26 9.12002 25.03 9.01002 24.81C8.66002 23.98 8.39002 23.11 8.23002 22.2C8.14002 21.71 8.09002 21.21 8.06002 20.7C8.06002 20.67 8.06002 20.65 8.06002 20.62C8.04002 20.58 8.04002 20.52 8.04002 20.49C8.02002 20.34 8.02002 20.18 8.02002 20.03C8.02002 19.72 8.04002 19.44 8.06002 19.15C8.08002 18.92 8.10002 18.69 8.14002 18.46C8.19002 18.03 8.27002 17.6 8.37002 17.18C8.49002 16.7 8.63002 16.23 8.80002 15.77C8.98002 15.3 9.18002 14.85 9.41002 14.42C9.70002 13.87 10.04 13.35 10.42 12.86C10.47 12.79 10.51 12.72 10.56 12.66C10.85 12.27 11.17 11.91 11.52 11.57C11.52 11.57 11.53 11.56 11.54 11.55C12.39 10.7 13.36 9.98 14.43 9.41C14.85 9.19 15.29 8.99 15.74 8.82C16.2 8.65 16.66 8.5 17.15 8.39C17.78 8.22 18.43 8.12 19.09 8.07C19.16 8.07 19.24 8.07 19.31 8.06C19.52 8.01 19.75 8 20 8C20.25 8 20.48 8.01 20.71 8.03C20.75 8.03 20.79 8.03 20.83 8.03C21.57 8.07 22.3 8.18 22.98 8.37C23.42 8.48 23.85 8.62 24.27 8.78C24.72 8.95 25.15 9.15 25.57 9.37C26.65 9.94 27.63 10.67 28.48 11.53C28.82 11.87 29.14 12.24 29.44 12.62C29.61 12.84 29.77 13.07 29.93 13.3C30.27 13.8 30.58 14.33 30.83 14.88C30.96 15.16 31.09 15.45 31.2 15.74C31.38 16.2 31.53 16.67 31.64 17.15C31.82 17.88 31.93 18.64 31.97 19.41C31.99 19.49 31.99 19.54 31.99 19.62L32 19.64Z" fill="#E2B468"/>
<path d="M26.7599 15.85C26.7599 15.85 26.6899 15.8 26.6499 15.78C26.5099 15.69 26.3599 15.56 26.2099 15.4L26.1899 15.38C26.0699 15.26 25.9499 15.1 25.8199 14.9C25.6399 14.63 25.4999 14.3 25.3899 13.94C25.3699 13.87 25.3599 13.79 25.3399 13.68C25.2199 12.97 24.5999 12.45 23.8899 12.45H16.1299C15.4099 12.45 14.7999 12.97 14.6799 13.67C14.6599 13.76 14.6399 13.85 14.6199 13.94C14.4799 14.47 14.1899 14.98 13.8099 15.38L13.7899 15.4C13.6999 15.5 13.5899 15.6 13.4299 15.73C13.3699 15.78 13.3099 15.82 13.2499 15.86C12.8599 16.12 12.6299 16.56 12.6299 17.03V19.2C12.6299 23.42 15.7799 27 19.9499 27.53H20.0299H20.1099C24.2699 27 27.4099 23.42 27.4099 19.2V17.02C27.4099 16.54 27.1699 16.1 26.7799 15.84L26.7599 15.85Z" fill="#E5E3D7"/>
<path d="M26.2301 16.3499C26.0301 16.2199 25.8401 16.0499 25.6801 15.8699C25.5101 15.6999 25.3601 15.4999 25.2401 15.2999C25.0201 14.9699 24.8501 14.5799 24.7401 14.1899C24.7201 14.0899 24.7001 13.9899 24.6801 13.8899C24.6101 13.4799 24.2601 13.1799 23.8401 13.1799H16.1901C15.7701 13.1799 15.4201 13.4799 15.3501 13.8899C15.3301 13.9899 15.3101 14.0999 15.2901 14.1899C15.1201 14.8199 14.7901 15.4099 14.3501 15.8699C14.2201 16.0199 14.0701 16.1499 13.9101 16.2799C13.8401 16.3299 13.7701 16.3799 13.7001 16.4199C13.4801 16.5699 13.3501 16.8199 13.3501 17.0799V19.2199C13.3501 23.1199 16.2401 26.3499 20.0301 26.8299C23.8101 26.3499 26.6901 23.1299 26.6901 19.2199V17.0699C26.6901 16.7999 26.5601 16.5499 26.3301 16.4099C26.3001 16.3899 26.2701 16.3699 26.2401 16.3499H26.2301ZM25.6801 19.2199C25.6801 22.5499 23.2201 25.3299 20.0201 25.8099C16.8001 25.3299 14.3401 22.5499 14.3401 19.2199V17.8799C14.3401 17.4799 14.5001 17.0999 14.8001 16.8399C15.3801 16.3099 15.8401 15.6499 16.1201 14.8999C16.2801 14.4799 16.6701 14.1899 17.1301 14.1899H22.9101C23.3601 14.1899 23.7601 14.4699 23.9101 14.8899C24.1901 15.6499 24.6601 16.3199 25.2401 16.8299C25.5201 17.0999 25.6801 17.4699 25.6801 17.8599V19.2199Z" fill="#203751"/>
<path d="M25.4103 16.9999C25.5803 17.1399 25.6803 17.3599 25.6803 17.5899V19.2299C25.6803 22.5599 23.2203 25.3399 20.0203 25.8199C16.8003 25.3399 14.3403 22.5599 14.3403 19.2299V17.5899C14.3403 17.3599 14.4503 17.1399 14.6303 16.9899C15.3903 16.3599 15.9603 15.5099 16.2403 14.5299C16.3003 14.3299 16.4703 14.1899 16.6803 14.1899H23.3503C23.5603 14.1899 23.7303 14.3299 23.7903 14.5299C24.0503 15.4499 24.5703 16.2499 25.2403 16.8399C25.3003 16.8999 25.3603 16.9499 25.4203 16.9999H25.4103Z" fill="#188B51"/>
<path d="M19.7502 19.9999H22.1402C22.3802 19.9999 22.5702 19.8099 22.5702 19.5699C22.5702 19.3299 22.3802 19.1399 22.1402 19.1399H19.7502C19.5902 18.7599 19.2002 18.4899 18.7602 18.4899C18.0602 18.4899 17.5302 19.1499 17.7302 19.8799C17.8302 20.2199 18.1102 20.5099 18.4502 20.5999C19.0202 20.7599 19.5502 20.4599 19.7502 19.9999ZM18.5502 19.5699C18.5502 19.4499 18.6402 19.3499 18.7602 19.3499C18.8802 19.3499 18.9802 19.4499 18.9802 19.5699C18.9802 19.6899 18.8802 19.7899 18.7602 19.7899C18.6402 19.7899 18.5502 19.6899 18.5502 19.5699Z" fill="#105B34"/>
<path d="M19.6196 18.6629C19.1197 18.163 18.3093 18.163 17.8094 18.6629C17.3095 19.1628 17.3095 19.9732 17.8094 20.4731C18.3093 20.973 19.1197 20.973 19.6196 20.4731C20.1195 19.9732 20.1195 19.1628 19.6196 18.6629Z" fill="#E2B468"/>
</g>
<defs>
<filter id="filter0_b_43_288" x="-180.194" y="-180.194" width="400.387" height="400.387" filterUnits="userSpaceOnUse" color-interpolation-filters="sRGB">
<feFlood flood-opacity="0" result="BackgroundImageFix"/>
<feGaussianBlur in="BackgroundImageFix" stdDeviation="90.0968"/>
<feComposite in2="SourceAlpha" operator="in" result="effect1_backgroundBlur_43_288"/>
<feBlend mode="normal" in="SourceGraphic" in2="effect1_backgroundBlur_43_288" result="shape"/>
</filter>
<linearGradient id="paint0_linear_43_288" x1="47.6705" y1="15.9907" x2="34.0109" y2="16.4242" gradientUnits="userSpaceOnUse">
<stop stop-color="#58D6AA"/>
<stop offset="1" stop-color="#EFEFEF" stop-opacity="0"/>
</linearGradient>
<linearGradient id="paint1_linear_43_288" x1="0" y1="0" x2="16.1869" y2="8.60417" gradientUnits="userSpaceOnUse">
<stop stop-color="#56A589"/>
<stop offset="1" stop-color="white" stop-opacity="0"/>
</linearGradient>
<clipPath id="clip0_43_288">
<rect width="24" height="24" fill="white" transform="translate(8 8)"/>
</clipPath>
</defs>
</svg>
